<?xml version="1.0" encoding="UTF-8"?>
<svg id="Layer_1" xmlns="http://www.w3.org/2000/svg" version="1.1" viewBox="0 0 750 130.5">
  <!-- Generator: Adobe Illustrator 30.0.0, SVG Export Plug-In . SVG Version: 2.1.1 Build 123)  -->
  <defs>
    <style>
      .st0 {
        fill: #1d2609;
      }
    </style>
  </defs>
  <g id="Layer_11" data-name="Layer_1">
    <path class="st0" d="M51,127.2c20.1,0,34.2-17.1,34.2-41.7s-14.1-41.9-34.2-41.9-23,11.5-24.7,15.1l-.7,1.5V6.4h-13.9v118.8h13.9v-13.6l.7,1.3c2.3,4.3,9.4,14.3,24.7,14.3h0ZM25.3,85.5c0-17.3,9.2-29,22.8-29s22.8,11.9,22.8,29-9.4,29-22.8,29-22.8-11.6-22.8-29Z"/>
    <path class="st0" d="M131.4,126.9c16.8,0,33.7-10.2,33.7-33.1v-48h-13.9v47.2c0,12.8-7.6,20.7-19.9,20.7s-19.9-7.7-19.9-20.7v-47.2h-14.2v48c0,20.7,12.7,33.1,34.1,33.1h0Z"/>
    <g>
      <rect class="st0" x="185.6" y="45.7" width="14" height="79.5"/>
      <rect class="st0" x="185.2" y="7.1" width="14.7" height="22.5"/>
    </g>
    <rect class="st0" x="221" y="6.4" width="14" height="118.8"/>
    <path class="st0" d="M296.8,125.2h16.8v-12.9h-13.1c-11.6,0-16-4.3-16-16v-38.1h29.1v-12.6h-29.1V10.7h-14v35.1h-21v12.6h21v41.1c0,17.3,8.6,25.8,26.3,25.8h0Z"/>
    <path class="st0" d="M389.8,43.8c-22,0-37.3,17.1-37.3,41.7s15.3,41.7,37.3,41.7,37.3-17.1,37.3-41.7-15.3-41.7-37.3-41.7ZM389.8,114.3c-13.8,0-22.8-11.3-22.8-28.8s8.9-28.8,22.8-28.8,22.8,11.3,22.8,28.8-8.9,28.8-22.8,28.8Z"/>
    <path class="st0" d="M477.7,56.8c12.6,0,19.9,8.7,19.9,23.8v44.6h14.2v-47.4c0-20.9-11.7-33.9-30.5-33.9s-20.5,7.8-23.7,15l-.7,1.6v-14.9h-14v79.5h14v-44.6c0-15.1,7.6-23.8,20.8-23.8h0Z"/>
    <path class="st0" d="M590,127.5c19,0,31.3-9.5,31.3-24.1s-8.6-22.6-27.1-24.8l-11.2-1.3c-10-1.2-14.6-4.6-14.6-10.9s4.4-10.8,16.8-10.8,19.8,7.3,20.8,8.8h13.9c-6-18.8-26.2-20.8-34.7-20.8-18.2,0-30.5,9.4-30.5,23.5s9.4,21.7,26.5,23.7l11.5,1.3c10.3,1.1,14.6,4.7,14.6,12.1s-6.5,11.1-17.3,11.1c-15.3,0-21.2-7.3-23.1-10.7h-14.4c1.5,6.8,10.8,23.1,37.5,23.1v-.2Z"/>
    <g>
      <rect class="st0" x="636.8" y="45.7" width="14" height="79.5"/>
      <rect class="st0" x="636.5" y="7.1" width="14.7" height="22.5"/>
    </g>
    <path class="st0" d="M738.8,125.2V45.7h-14v14.6l-.7-1.5c-2.7-5.6-9.3-14.9-23.5-14.9s-33.6,16.8-33.6,41.7,13.5,41.5,33.6,41.5,22.1-11.4,23.5-14.9l.7-1.8v14.7h14ZM703.3,114.4c-13.3,0-21.8-11.3-21.8-28.8s8.6-28.8,21.8-28.8,21.8,11.6,21.8,28.8-8.8,28.8-21.8,28.8Z"/>
  </g>
</svg>